<?xml version="1.0" encoding="UTF-8"?>
<svg viewBox="0 0 494 124" version="1.1" xmlns="http://www.w3.org/2000/svg" xmlns:xlink="http://www.w3.org/1999/xlink" fill="#000000">
  <title>Polymath Music Productions</title>
  <desc>Music production services tailored to your budget.</desc>
  <g transform="translate(-7.000000, -32.000000)">
    <path d="M59.8888888,55.7 C59.8888888,67.4 51.3888888,78.6 35.5888888,78.6 L24.8888888,78.6 L24.8888888,104 L7.38888884,104 L7.38888884,32.8 L35.5888888,32.8 C51.3888888,32.8 59.8888888,44 59.8888888,55.7 Z M42.3888888,55.7 C42.3888888,52 39.5888888,48.5 34.7888888,48.5 L24.8888888,48.5 L24.8888888,62.9 L34.7888888,62.9 C39.5888888,62.9 42.3888888,59.4 42.3888888,55.7 Z M122.266667,68.4 C122.266667,79.1 122.566667,89.1 115.066667,96.6 C109.866667,101.8 103.866667,104.6 95.1666666,104.6 C86.4666666,104.6 80.4666666,101.8 75.2666666,96.6 C67.7666666,89.1 68.0666666,79.1 68.0666666,68.4 C68.0666666,57.7 67.7666666,47.7 75.2666666,40.2 C80.4666666,35 86.4666666,32.2 95.1666666,32.2 C103.866667,32.2 109.866667,35 115.066667,40.2 C122.566667,47.7 122.266667,57.7 122.266667,68.4 Z M104.766667,68.4 C104.766667,55.4 103.766667,53 102.166667,50.9 C100.866667,49.2 98.3666666,47.8 95.1666666,47.8 C91.9666666,47.8 89.4666666,49.2 88.1666666,50.9 C86.5666666,53 85.5666666,55.4 85.5666666,68.4 C85.5666666,81.4 86.5666666,83.7 88.1666666,85.8 C89.4666666,87.5 91.9666666,89 95.1666666,89 C98.3666666,89 100.866667,87.5 102.166667,85.8 C103.766667,83.7 104.766667,81.4 104.766667,68.4 Z M182.044444,104 L134.644444,104 L134.644444,32.8 L152.144444,32.8 L152.144444,88.4 L182.044444,88.4 L182.044444,104 Z M237.822222,32.8 L216.322222,75 L216.322222,104 L198.822222,104 L198.822222,75 L177.322222,32.8 L196.422222,32.8 L207.622222,58.4 L218.722222,32.8 L237.822222,32.8 Z M311.7,104 L294.2,104 L294.2,69.9 L284.1,87.5 L272.9,87.5 L262.8,69.9 L262.8,104 L245.3,104 L245.3,32.8 L262.5,32.8 L278.5,64.2 L294.5,32.8 L311.7,32.8 L311.7,104 Z M384.477778,104 L366.177778,104 L362.877778,93.4 L340.977778,93.4 L337.477778,104 L319.177778,104 L345.077778,32.8 L358.577778,32.8 L384.477778,104 Z M358.277778,78.8 L352.277778,59.8 L345.877778,78.8 L358.277778,78.8 Z M434.255556,48.4 L416.755556,48.4 L416.755556,104 L399.255556,104 L399.255556,48.4 L381.755556,48.4 L381.755556,32.8 L434.255556,32.8 L434.255556,48.4 Z M498.333333,104 L480.833333,104 L480.833333,75.8 L462.233333,75.8 L462.233333,104 L444.733333,104 L444.733333,32.8 L462.233333,32.8 L462.233333,60.2 L480.833333,60.2 L480.833333,32.8 L498.333333,32.8 L498.333333,104 Z"></path>
  </g>
</svg>
