<?xml version="1.0" encoding="UTF-8"?>
<svg width="496px" height="125px" viewBox="0 0 496 125" version="1.1" xmlns="http://www.w3.org/2000/svg" xmlns:xlink="http://www.w3.org/1999/xlink">
    <!-- Generator: Sketch 51.3 (57544) - http://www.bohemiancoding.com/sketch -->
    <title>logo_subheading</title>
    <desc>Created with Sketch.</desc>
    <defs></defs>
    <g id="Page-1" stroke="none" stroke-width="1" fill="none" fill-rule="evenodd">
        <g id="logo_subheading">
            <path d="M52.8888888,23.7 C52.8888888,35.4 44.3888888,46.6 28.5888888,46.6 L17.8888888,46.6 L17.8888888,72 L0.38888884,72 L0.38888884,0.8 L28.5888888,0.8 C44.3888888,0.8 52.8888888,12 52.8888888,23.7 Z M35.3888888,23.7 C35.3888888,20 32.5888888,16.5 27.7888888,16.5 L17.8888888,16.5 L17.8888888,30.9 L27.7888888,30.9 C32.5888888,30.9 35.3888888,27.4 35.3888888,23.7 Z M115.266667,36.4 C115.266667,47.1 115.566667,57.1 108.066667,64.6 C102.866667,69.8 96.866667,72.6 88.1666666,72.6 C79.4666666,72.6 73.4666666,69.8 68.2666666,64.6 C60.7666666,57.1 61.0666666,47.1 61.0666666,36.4 C61.0666666,25.7 60.7666666,15.7 68.2666666,8.2 C73.4666666,3 79.4666666,0.2 88.1666666,0.2 C96.866667,0.2 102.866667,3 108.066667,8.2 C115.566667,15.7 115.266667,25.7 115.266667,36.4 Z M97.766667,36.4 C97.766667,23.4 96.766667,21 95.166667,18.9 C93.866667,17.2 91.3666666,15.8 88.1666666,15.8 C84.9666666,15.8 82.4666666,17.2 81.1666666,18.9 C79.5666666,21 78.5666666,23.4 78.5666666,36.4 C78.5666666,49.4 79.5666666,51.7 81.1666666,53.8 C82.4666666,55.5 84.9666666,57 88.1666666,57 C91.3666666,57 93.866667,55.5 95.166667,53.8 C96.766667,51.7 97.766667,49.4 97.766667,36.4 Z M175.044444,72 L127.644444,72 L127.644444,0.8 L145.144444,0.8 L145.144444,56.4 L175.044444,56.4 L175.044444,72 Z M230.822222,0.8 L209.322222,43 L209.322222,72 L191.822222,72 L191.822222,43 L170.322222,0.8 L189.422222,0.8 L200.622222,26.4 L211.722222,0.8 L230.822222,0.8 Z M304.7,72 L287.2,72 L287.2,37.9 L277.1,55.5 L265.9,55.5 L255.8,37.9 L255.8,72 L238.3,72 L238.3,0.8 L255.5,0.8 L271.5,32.2 L287.5,0.8 L304.7,0.8 L304.7,72 Z M377.477778,72 L359.177778,72 L355.877778,61.4 L333.977778,61.4 L330.477778,72 L312.177778,72 L338.077778,0.8 L351.577778,0.8 L377.477778,72 Z M351.277778,46.8 L345.277778,27.8 L338.877778,46.8 L351.277778,46.8 Z M427.255556,16.4 L409.755556,16.4 L409.755556,72 L392.255556,72 L392.255556,16.4 L374.755556,16.4 L374.755556,0.8 L427.255556,0.8 L427.255556,16.4 Z M491.333333,72 L473.833333,72 L473.833333,43.8 L455.233333,43.8 L455.233333,72 L437.733333,72 L437.733333,0.8 L455.233333,0.8 L455.233333,28.2 L473.833333,28.2 L473.833333,0.8 L491.333333,0.8 L491.333333,72 Z" id="Shape" fill="#000000" fill-rule="nonzero"></path>
            <polygon id="Shape" fill="#000000" fill-rule="nonzero" points="255.524414 38.0332031 271.637695 65.5581055 286.880371 38.0332031"></polygon>
            <path d="M2.16,124 L2.16,107.2 L9.648,107.2 C11.76,107.2 13.416,107.824 14.496,108.88 C15.384,109.792 15.888,111.04 15.888,112.504 L15.888,112.552 C15.888,115.312 14.232,116.968 11.904,117.64 L16.44,124 L12.936,124 L8.808,118.144 L5.112,118.144 L5.112,124 L2.16,124 Z M5.112,115.528 L9.432,115.528 C11.544,115.528 12.888,114.424 12.888,112.72 L12.888,112.672 C12.888,110.872 11.592,109.888 9.408,109.888 L5.112,109.888 L5.112,115.528 Z M32.512,124 L32.512,107.2 L44.968,107.2 L44.968,109.84 L35.464,109.84 L35.464,114.208 L43.888,114.208 L43.888,116.848 L35.464,116.848 L35.464,121.36 L45.088,121.36 L45.088,124 L32.512,124 Z M69.392,124.288 C64.496,124.288 60.848,120.472 60.848,115.648 L60.848,115.6 C60.848,110.824 64.424,106.912 69.512,106.912 C72.608,106.912 74.48,107.992 76.088,109.528 L74.192,111.712 C72.848,110.464 71.408,109.624 69.488,109.624 C66.296,109.624 63.944,112.264 63.944,115.552 L63.944,115.6 C63.944,118.888 66.272,121.552 69.488,121.552 C71.552,121.552 72.872,120.736 74.312,119.392 L76.208,121.312 C74.456,123.136 72.536,124.288 69.392,124.288 Z M99.84,124.288 C94.68,124.288 91.08,120.376 91.08,115.648 L91.08,115.6 C91.08,110.872 94.728,106.912 99.888,106.912 C105.048,106.912 108.648,110.824 108.648,115.552 L108.648,115.6 C108.648,120.328 105,124.288 99.84,124.288 Z M99.888,121.552 C103.224,121.552 105.552,118.912 105.552,115.648 L105.552,115.6 C105.552,112.336 103.176,109.624 99.84,109.624 C96.504,109.624 94.176,112.288 94.176,115.552 L94.176,115.6 C94.176,118.864 96.552,121.552 99.888,121.552 Z M125.224,124 L125.224,107.2 L132.712,107.2 C134.824,107.2 136.48,107.824 137.56,108.88 C138.448,109.792 138.952,111.04 138.952,112.504 L138.952,112.552 C138.952,115.312 137.296,116.968 134.968,117.64 L139.504,124 L136,124 L131.872,118.144 L128.176,118.144 L128.176,124 L125.224,124 Z M128.176,115.528 L132.496,115.528 C134.608,115.528 135.952,114.424 135.952,112.72 L135.952,112.672 C135.952,110.872 134.656,109.888 132.472,109.888 L128.176,109.888 L128.176,115.528 Z M155.576,124 L155.576,107.2 L161.84,107.2 C167.12,107.2 170.768,110.824 170.768,115.552 L170.768,115.6 C170.768,120.328 167.12,124 161.84,124 L155.576,124 Z M161.84,109.888 L158.528,109.888 L158.528,121.312 L161.84,121.312 C165.368,121.312 167.672,118.936 167.672,115.648 L167.672,115.6 C167.672,112.312 165.368,109.888 161.84,109.888 Z M187.512,124 L187.512,107.2 L190.464,107.2 L190.464,124 L187.512,124 Z M207.952,124 L207.952,107.2 L210.688,107.2 L219.688,118.816 L219.688,107.2 L222.592,107.2 L222.592,124 L220.12,124 L210.856,112.048 L210.856,124 L207.952,124 Z M247.88,124.288 C242.624,124.288 239.168,120.544 239.168,115.648 L239.168,115.6 C239.168,110.896 242.768,106.912 247.832,106.912 C250.76,106.912 252.56,107.728 254.288,109.192 L252.416,111.424 C251.12,110.32 249.848,109.624 247.712,109.624 C244.616,109.624 242.264,112.336 242.264,115.552 L242.264,115.6 C242.264,119.056 244.544,121.6 247.976,121.6 C249.56,121.6 251,121.096 252.032,120.328 L252.032,117.184 L247.736,117.184 L247.736,114.616 L254.888,114.616 L254.888,121.672 C253.232,123.088 250.856,124.288 247.88,124.288 Z M299.728,124.288 C294.832,124.288 291.184,120.472 291.184,115.648 L291.184,115.6 C291.184,110.824 294.76,106.912 299.848,106.912 C302.944,106.912 304.816,107.992 306.424,109.528 L304.528,111.712 C303.184,110.464 301.744,109.624 299.824,109.624 C296.632,109.624 294.28,112.264 294.28,115.552 L294.28,115.6 C294.28,118.888 296.608,121.552 299.824,121.552 C301.888,121.552 303.208,120.736 304.648,119.392 L306.544,121.312 C304.792,123.136 302.872,124.288 299.728,124.288 Z M330.176,124.288 C325.016,124.288 321.416,120.376 321.416,115.648 L321.416,115.6 C321.416,110.872 325.064,106.912 330.224,106.912 C335.384,106.912 338.984,110.824 338.984,115.552 L338.984,115.6 C338.984,120.328 335.336,124.288 330.176,124.288 Z M330.224,121.552 C333.56,121.552 335.888,118.912 335.888,115.648 L335.888,115.6 C335.888,112.336 333.512,109.624 330.176,109.624 C326.84,109.624 324.512,112.288 324.512,115.552 L324.512,115.6 C324.512,118.864 326.888,121.552 330.224,121.552 Z M355.56,124 L355.56,107.2 L358.704,107.2 L363.816,115.144 L368.928,107.2 L372.072,107.2 L372.072,124 L369.12,124 L369.12,111.952 L363.816,119.872 L363.72,119.872 L358.464,112 L358.464,124 L355.56,124 Z M389.392,124 L389.392,107.2 L396.016,107.2 C399.952,107.2 402.4,109.432 402.4,112.816 L402.4,112.864 C402.4,116.632 399.376,118.6 395.68,118.6 L392.344,118.6 L392.344,124 L389.392,124 Z M392.344,115.936 L395.776,115.936 C398.008,115.936 399.4,114.688 399.4,112.936 L399.4,112.888 C399.4,110.92 397.984,109.888 395.776,109.888 L392.344,109.888 L392.344,115.936 Z M415.304,124 L422.696,107.08 L425.432,107.08 L432.824,124 L429.704,124 L428,119.944 L420.056,119.944 L418.328,124 L415.304,124 Z M421.136,117.328 L426.92,117.328 L424.016,110.608 L421.136,117.328 Z M448.704,124 L448.704,107.2 L451.44,107.2 L460.44,118.816 L460.44,107.2 L463.344,107.2 L463.344,124 L460.872,124 L451.608,112.048 L451.608,124 L448.704,124 Z M485.608,124 L485.608,117.376 L478.936,107.2 L482.44,107.2 L487.12,114.616 L491.872,107.2 L495.256,107.2 L488.584,117.304 L488.584,124 L485.608,124 Z" id="RECORDING-COMPANY" fill="#00143E"></path>
        </g>
    </g>
</svg>