<?xml version="1.0" encoding="UTF-8"?>
<svg viewBox="0 0 494 124" version="1.1" xmlns="http://www.w3.org/2000/svg" xmlns:xlink="http://www.w3.org/1999/xlink" fill="#000000">
  <title>Polymath Music Productions</title>
  <desc>Music production services tailored to your budget.</desc>
  <g transform="translate(-7.000000, -32.000000)">
    <path d="M59.8888888,55.7 C59.8888888,67.4 51.3888888,78.6 35.5888888,78.6 L24.8888888,78.6 L24.8888888,104 L7.38888884,104 L7.38888884,32.8 L35.5888888,32.8 C51.3888888,32.8 59.8888888,44 59.8888888,55.7 Z M42.3888888,55.7 C42.3888888,52 39.5888888,48.5 34.7888888,48.5 L24.8888888,48.5 L24.8888888,62.9 L34.7888888,62.9 C39.5888888,62.9 42.3888888,59.4 42.3888888,55.7 Z M122.266667,68.4 C122.266667,79.1 122.566667,89.1 115.066667,96.6 C109.866667,101.8 103.866667,104.6 95.1666666,104.6 C86.4666666,104.6 80.4666666,101.8 75.2666666,96.6 C67.7666666,89.1 68.0666666,79.1 68.0666666,68.4 C68.0666666,57.7 67.7666666,47.7 75.2666666,40.2 C80.4666666,35 86.4666666,32.2 95.1666666,32.2 C103.866667,32.2 109.866667,35 115.066667,40.2 C122.566667,47.7 122.266667,57.7 122.266667,68.4 Z M104.766667,68.4 C104.766667,55.4 103.766667,53 102.166667,50.9 C100.866667,49.2 98.3666666,47.8 95.1666666,47.8 C91.9666666,47.8 89.4666666,49.2 88.1666666,50.9 C86.5666666,53 85.5666666,55.4 85.5666666,68.4 C85.5666666,81.4 86.5666666,83.7 88.1666666,85.8 C89.4666666,87.5 91.9666666,89 95.1666666,89 C98.3666666,89 100.866667,87.5 102.166667,85.8 C103.766667,83.7 104.766667,81.4 104.766667,68.4 Z M182.044444,104 L134.644444,104 L134.644444,32.8 L152.144444,32.8 L152.144444,88.4 L182.044444,88.4 L182.044444,104 Z M237.822222,32.8 L216.322222,75 L216.322222,104 L198.822222,104 L198.822222,75 L177.322222,32.8 L196.422222,32.8 L207.622222,58.4 L218.722222,32.8 L237.822222,32.8 Z M311.7,104 L294.2,104 L294.2,69.9 L284.1,87.5 L272.9,87.5 L262.8,69.9 L262.8,104 L245.3,104 L245.3,32.8 L262.5,32.8 L278.5,64.2 L294.5,32.8 L311.7,32.8 L311.7,104 Z M384.477778,104 L366.177778,104 L362.877778,93.4 L340.977778,93.4 L337.477778,104 L319.177778,104 L345.077778,32.8 L358.577778,32.8 L384.477778,104 Z M358.277778,78.8 L352.277778,59.8 L345.877778,78.8 L358.277778,78.8 Z M434.255556,48.4 L416.755556,48.4 L416.755556,104 L399.255556,104 L399.255556,48.4 L381.755556,48.4 L381.755556,32.8 L434.255556,32.8 L434.255556,48.4 Z M498.333333,104 L480.833333,104 L480.833333,75.8 L462.233333,75.8 L462.233333,104 L444.733333,104 L444.733333,32.8 L462.233333,32.8 L462.233333,60.2 L480.833333,60.2 L480.833333,32.8 L498.333333,32.8 L498.333333,104 Z"></path>
    <path d="M7.70459939,155 L7.70459939,138.48 L10.7961994,138.48 L15.8229995,146.2916 L20.8497996,138.48 L23.9413997,138.48 L23.9413997,155 L21.0385996,155 L21.0385996,143.1528 L15.8229995,150.9408 L15.7285995,150.9408 L10.5601994,143.2 L10.5601994,155 L7.70459939,155 Z M49.1625996,155.2596 C44.8673996,155.2596 42.1297995,152.7816 42.1297995,147.9908 L42.1297995,138.48 L45.0325996,138.48 L45.0325996,147.8728 C45.0325996,150.9408 46.6137996,152.5692 49.2097996,152.5692 C51.7821997,152.5692 53.3633997,151.0352 53.3633997,147.9908 L53.3633997,138.48 L56.2661998,138.48 L56.2661998,147.8492 C56.2661998,152.7816 53.4813997,155.2596 49.1625996,155.2596 Z M80.2365997,155.236 C77.7113997,155.236 75.3277996,154.3628 73.3453996,152.5928 L75.0917996,150.516 C76.6729997,151.8848 78.2777997,152.6636 80.3073997,152.6636 C82.1009998,152.6636 83.2337998,151.814 83.2337998,150.5868 L83.2337998,150.5396 C83.2337998,149.3596 82.5729998,148.7224 79.5049997,148.0144 C75.9885997,147.1648 74.0061996,146.1264 74.0061996,143.082 L74.0061996,143.0348 C74.0061996,140.2028 76.3661997,138.244 79.6465997,138.244 C82.0537998,138.244 83.9653998,138.9756 85.6409998,140.3208 L84.0833998,142.5156 C82.5965998,141.4064 81.1097997,140.8164 79.5993997,140.8164 C77.9001997,140.8164 76.9089997,141.6896 76.9089997,142.7752 L76.9089997,142.8224 C76.9089997,144.0968 77.6641997,144.6632 80.8501997,145.4184 C84.3429998,146.268 86.1365998,147.5188 86.1365998,150.2564 L86.1365998,150.3036 C86.1365998,153.3952 83.7057998,155.236 80.2365997,155.236 Z M103.9238,155 L103.9238,138.48 L106.8266,138.48 L106.8266,155 L103.9238,155 Z M133.1098,155.2832 C128.2954,155.2832 124.7082,151.5308 124.7082,146.7872 L124.7082,146.74 C124.7082,142.0436 128.2246,138.1968 133.2278,138.1968 C136.2722,138.1968 138.113,139.2588 139.6942,140.7692 L137.8298,142.9168 C136.5082,141.6896 135.0922,140.8636 133.2042,140.8636 C130.0654,140.8636 127.7526,143.4596 127.7526,146.6928 L127.7526,146.74 C127.7526,149.9732 130.0418,152.5928 133.2042,152.5928 C135.2338,152.5928 136.5318,151.7904 137.9478,150.4688 L139.8122,152.3568 C138.0894,154.1504 136.2014,155.2832 133.1098,155.2832 Z M178.3366,155 L178.3366,138.48 L184.8502,138.48 C188.7206,138.48 191.1278,140.6748 191.1278,144.0024 L191.1278,144.0496 C191.1278,147.7548 188.1542,149.69 184.5198,149.69 L181.2394,149.69 L181.2394,155 L178.3366,155 Z M181.2394,147.0704 L184.6142,147.0704 C186.809,147.0704 188.1778,145.8432 188.1778,144.1204 L188.1778,144.0732 C188.1778,142.138 186.7854,141.1232 184.6142,141.1232 L181.2394,141.1232 L181.2394,147.0704 Z M208.3014,155 L208.3014,138.48 L215.6646,138.48 C217.7414,138.48 219.3698,139.0936 220.4318,140.132 C221.305,141.0288 221.8006,142.256 221.8006,143.6956 L221.8006,143.7428 C221.8006,146.4568 220.1722,148.0852 217.883,148.746 L222.3434,155 L218.8978,155 L214.8386,149.2416 L211.2042,149.2416 L211.2042,155 L208.3014,155 Z M211.2042,146.6692 L215.4522,146.6692 C217.529,146.6692 218.8506,145.5836 218.8506,143.908 L218.8506,143.8608 C218.8506,142.0908 217.5762,141.1232 215.4286,141.1232 L211.2042,141.1232 L211.2042,146.6692 Z M247.4466,155.2832 C242.3726,155.2832 238.8326,151.4364 238.8326,146.7872 L238.8326,146.74 C238.8326,142.0908 242.4198,138.1968 247.4938,138.1968 C252.5678,138.1968 256.1078,142.0436 256.1078,146.6928 L256.1078,146.74 C256.1078,151.3892 252.5206,155.2832 247.4466,155.2832 Z M247.4938,152.5928 C250.7742,152.5928 253.0634,149.9968 253.0634,146.7872 L253.0634,146.74 C253.0634,143.5304 250.727,140.8636 247.4466,140.8636 C244.1662,140.8636 241.877,143.4832 241.877,146.6928 L241.877,146.74 C241.877,149.9496 244.2134,152.5928 247.4938,152.5928 Z M273.8242,155 L273.8242,138.48 L279.9838,138.48 C285.1758,138.48 288.763,142.0436 288.763,146.6928 L288.763,146.74 C288.763,151.3892 285.1758,155 279.9838,155 L273.8242,155 Z M279.9838,141.1232 L276.727,141.1232 L276.727,152.3568 L279.9838,152.3568 C283.453,152.3568 285.7186,150.0204 285.7186,146.7872 L285.7186,146.74 C285.7186,143.5068 283.453,141.1232 279.9838,141.1232 Z M313.2526,155.2596 C308.9574,155.2596 306.2198,152.7816 306.2198,147.9908 L306.2198,138.48 L309.1226,138.48 L309.1226,147.8728 C309.1226,150.9408 310.7038,152.5692 313.2998,152.5692 C315.8722,152.5692 317.4534,151.0352 317.4534,147.9908 L317.4534,138.48 L320.3562,138.48 L320.3562,147.8492 C320.3562,152.7816 317.5714,155.2596 313.2526,155.2596 Z M346.2146,155.2832 C341.4002,155.2832 337.813,151.5308 337.813,146.7872 L337.813,146.74 C337.813,142.0436 341.3294,138.1968 346.3326,138.1968 C349.377,138.1968 351.2178,139.2588 352.799,140.7692 L350.9346,142.9168 C349.613,141.6896 348.197,140.8636 346.309,140.8636 C343.1702,140.8636 340.8574,143.4596 340.8574,146.6928 L340.8574,146.74 C340.8574,149.9732 343.1466,152.5928 346.309,152.5928 C348.3386,152.5928 349.6366,151.7904 351.0526,150.4688 L352.917,152.3568 C351.1942,154.1504 349.3062,155.2832 346.2146,155.2832 Z M374.2206,155 L374.2206,141.1704 L368.9814,141.1704 L368.9814,138.48 L382.3862,138.48 L382.3862,141.1704 L377.147,141.1704 L377.147,155 L374.2206,155 Z M399.8194,155 L399.8194,138.48 L402.7222,138.48 L402.7222,155 L399.8194,155 Z M429.2178,155.2832 C424.1438,155.2832 420.6038,151.4364 420.6038,146.7872 L420.6038,146.74 C420.6038,142.0908 424.191,138.1968 429.265,138.1968 C434.339,138.1968 437.879,142.0436 437.879,146.6928 L437.879,146.74 C437.879,151.3892 434.2918,155.2832 429.2178,155.2832 Z M429.265,152.5928 C432.5454,152.5928 434.8346,149.9968 434.8346,146.7872 L434.8346,146.74 C434.8346,143.5304 432.4982,140.8636 429.2178,140.8636 C425.9374,140.8636 423.6482,143.4832 423.6482,146.6928 L423.6482,146.74 C423.6482,149.9496 425.9846,152.5928 429.265,152.5928 Z M455.5954,155 L455.5954,138.48 L458.2858,138.48 L467.135801,149.9024 L467.135801,138.48 L469.991401,138.48 L469.991401,155 L467.560601,155 L458.451,143.2472 L458.451,155 L455.5954,155 Z M494.221401,155.236 C491.6962,155.236 489.3126,154.3628 487.3302,152.5928 L489.0766,150.516 C490.6578,151.8848 492.2626,152.6636 494.292201,152.6636 C496.085801,152.6636 497.218601,151.814 497.218601,150.5868 L497.218601,150.5396 C497.218601,149.3596 496.557801,148.7224 493.489801,148.0144 C489.9734,147.1648 487.991,146.1264 487.991,143.082 L487.991,143.0348 C487.991,140.2028 490.351,138.244 493.631401,138.244 C496.038601,138.244 497.950201,138.9756 499.625801,140.3208 L498.068201,142.5156 C496.581401,141.4064 495.094601,140.8164 493.584201,140.8164 C491.885,140.8164 490.8938,141.6896 490.8938,142.7752 L490.8938,142.8224 C490.8938,144.0968 491.649,144.6632 494.835001,145.4184 C498.327801,146.268 500.121401,147.5188 500.121401,150.2564 L500.121401,150.3036 C500.121401,153.3952 497.690601,155.236 494.221401,155.236 Z"></path>
    <polygon points="262.524414 70.0332031 278.637695 97.5581055 293.880371 70.0332031"></polygon>
  </g>
</svg>
