<?xml version="1.0" encoding="UTF-8"?>
<svg width="55px" height="55px" viewBox="0 0 55 55" version="1.1" xmlns="http://www.w3.org/2000/svg" xmlns:xlink="http://www.w3.org/1999/xlink">
    <!-- Generator: Sketch 51.3 (57544) - http://www.bohemiancoding.com/sketch -->
    <title>yelp</title>
    <desc>Created with Sketch.</desc>
    <defs></defs>
    <g id="yelp" stroke="none" stroke-width="1" fill="none" fill-rule="evenodd">
        <path d="M11.399,25.354 L21.848,30.449 C23.858,31.43 23.548,34.386 21.378,34.927 L10.098,37.739 C8.691,38.09 7.302,37.119 7.136,35.679 C6.781,32.597 7.131,29.554 8.078,26.737 C8.538,25.369 10.101,24.721 11.399,25.354" id="Fill-1" fill="#FFFFFF"></path>
        <path d="M15.583,46.864 L23.36,38.226 C24.856,36.564 27.612,37.677 27.534,39.912 L27.128,51.533 C27.078,52.981 25.763,54.053 24.334,53.813 C21.329,53.309 18.486,52.147 16.004,50.443 C14.812,49.623 14.614,47.94 15.583,46.864" id="Fill-2" fill="#FFFFFF"></path>
        <path d="M34.023,35.369 L45.078,38.961 C46.454,39.408 47.125,40.965 46.501,42.271 C45.204,44.988 43.324,47.415 40.974,49.355 C39.856,50.277 38.181,50.006 37.413,48.777 L31.251,38.916 C30.066,37.019 31.896,34.677 34.023,35.369" id="Fill-3" fill="#FFFFFF"></path>
        <path d="M45.265,28.316 L34.09,31.52 C31.94,32.137 30.193,29.732 31.444,27.878 L37.945,18.241 C38.753,17.044 40.431,16.824 41.513,17.778 C43.742,19.745 45.567,22.205 46.8,25.051 C47.377,26.381 46.659,27.917 45.265,28.316" id="Fill-4" fill="#FFFFFF"></path>
        <path d="M19.153,1.2 C17.142,1.739 15.223,2.451 13.409,3.316 C12.15,3.916 11.674,5.467 12.372,6.675 L23.294,25.592 C24.519,27.715 27.764,26.845 27.764,24.395 L27.764,2.551 C27.764,1.156 26.576,0.051 25.186,0.16 C23.182,0.318 21.164,0.661 19.153,1.2" id="Fill-5" fill="#FFFFFF"></path>
    </g>
</svg>